<svg width="205" height="205" viewBox="0 0 205 205" fill="none" xmlns="http://www.w3.org/2000/svg">
<path d="M205 102.5C205 159.109 159.109 205 102.5 205C45.8908 205 0 159.109 0 102.5C0 45.8908 45.8908 0 102.5 0C159.109 0 205 45.8908 205 102.5Z" fill="#F9F9F9"/>
<path d="M166.55 72.7204C165.898 72.4659 165.2 72.3764 164.506 72.301C165.913 68.2481 163.949 63.7805 159.918 62.197C159.092 61.8719 158.252 61.7258 157.407 61.6787C158.101 56.7539 155.387 51.7821 150.526 49.8734C149.634 49.52 148.69 49.4022 147.722 49.2891C149.662 43.7281 146.948 37.564 141.398 35.3867C140.241 34.9202 139.047 34.7222 137.872 34.6751C140.227 26.1782 137.759 26.0557 137.759 26.0557C137.32 28.3225 136.229 31.3951 134.738 34.9673C131.486 35.7732 128.635 38.0211 127.219 41.3105C126.388 40.6696 125.562 40.024 124.576 39.6375C123.863 39.3595 123.155 39.1616 122.443 39.0343C122.995 32.7335 121.14 32.9032 121.14 32.9032C121.088 34.463 120.762 36.4942 120.234 38.8694C115.92 38.9731 111.865 41.6027 110.19 45.8583C108.661 49.6991 109.51 53.8274 111.965 56.8105C111.766 57.7483 111.507 58.7804 111.233 59.869C110.369 60.8021 109.647 61.8624 109.166 63.083C108.892 63.7899 108.713 64.4968 108.604 65.2179C108.085 64.8597 107.5 64.5958 106.853 64.544C107.197 63.6627 107.32 62.6777 107.136 61.6787C106.622 58.8039 103.879 56.8765 100.991 57.3948C98.5035 57.8331 96.7335 59.9303 96.6155 62.3431C96.2898 62.3431 95.9594 62.3667 95.6338 62.428C92.5187 62.9841 90.4419 65.953 90.9894 69.0587C91.2443 70.4866 92.0042 71.7025 93.0709 72.5366C91.2632 73.4367 90.1823 75.4396 90.5457 77.5273C90.9941 80.058 93.4202 81.7499 95.9594 81.3022C96.5305 81.1985 97.0497 80.9817 97.5217 80.7037C95.2987 84.1957 92.6083 88.3712 89.6207 92.9613C90.2909 93.1875 90.9045 93.4703 91.3812 93.8049C92.7405 94.6296 94.0101 95.6428 95.2184 96.8351C98.9849 100.601 100.958 105.158 101.685 107.057L105.182 110.554C107.094 111.275 111.644 113.249 115.419 117.01C116.458 118.047 117.322 119.15 118.081 120.29C125.647 115.417 132.147 111.482 136.48 108.914C136.475 108.975 136.451 109.017 136.437 109.06C135.979 111.59 137.683 114.003 140.218 114.46C142.304 114.823 144.319 113.744 145.216 111.939C146.056 113.004 147.264 113.763 148.695 114.017C151.824 114.578 154.793 112.509 155.345 109.394C155.406 109.069 155.435 108.735 155.435 108.414C157.842 108.306 159.951 106.529 160.39 104.05C160.9 101.175 158.974 98.4233 156.095 97.9096C156.062 97.9049 156.029 97.9096 156.001 97.9049C158.97 97.8012 161.74 96.0528 163.043 93.2111C163.43 93.1498 163.803 93.1074 164.157 93.0791C164.157 93.0791 164.176 92.6078 163.416 92.2544C163.826 90.9113 163.85 89.5163 163.562 88.1921C166.772 88.1968 169.816 86.307 171.071 83.1401C172.7 79.0354 170.67 74.351 166.545 72.7251L166.55 72.7204ZM125.341 82.273C125.185 82.8338 125.142 83.5878 125.232 84.3465C124.628 83.88 123.948 83.5218 123.391 83.3663C122.023 82.9846 120.607 83.6114 119.936 84.7943L115.995 81.109C116.571 80.0675 117.137 79.0354 117.694 78.0316C120.3 78.4322 122.929 77.8337 125.147 76.4858C125.544 77.8714 126.195 79.1721 127.063 80.3219C126.252 80.6707 125.6 81.3587 125.345 82.2683L125.341 82.273ZM129.178 72.2633C129.39 71.2077 128.819 70.152 127.804 69.7514C126.818 69.3556 125.676 69.742 125.1 70.6516C123.972 72.4612 122.074 73.5357 120.045 73.7054C119.049 73.7949 118.03 73.6818 117.043 73.3001C116.425 73.0503 115.887 72.7016 115.382 72.301C114.839 71.8627 114.348 71.3632 113.98 70.7929C112.833 69.0587 112.503 66.8013 113.329 64.723C114.013 62.9558 115.462 61.6362 117.208 61C117.614 60.8492 118.001 60.6937 118.44 60.623C119.45 60.4722 120.182 59.6287 120.262 58.606C120.347 57.5881 119.682 56.6267 118.704 56.2968L118.643 56.2685L118.072 56.0753C117.133 55.7124 116.349 55.1375 115.693 54.4541C113.989 52.6492 113.366 49.9583 114.334 47.503C115.174 45.3776 116.996 43.9214 119.077 43.4689C119.965 43.2757 120.871 43.2757 121.801 43.4595C122.183 43.5349 122.551 43.6339 122.924 43.7753C124.491 44.402 125.761 45.5755 126.483 47.1213C126.837 47.8847 127.611 48.3418 128.418 48.3748C128.63 48.3842 128.843 48.3842 129.055 48.323C130.094 48.0544 130.802 47.0977 130.745 46.0373C130.674 45.0618 130.83 44.124 131.179 43.238C132.085 40.9335 134.148 39.4585 136.446 39.1427C137.532 38.9919 138.674 39.0767 139.765 39.5197C143.163 40.8487 144.848 44.6942 143.489 48.1015C143.177 48.8744 142.729 49.5954 142.124 50.2316C141.431 50.9621 141.322 52.0931 141.86 52.9461C142.408 53.7991 143.465 54.1855 144.437 53.8745C145.891 53.3985 147.477 53.4551 148.893 54.0112C152.296 55.3496 153.967 59.1951 152.617 62.5976C152.532 62.7956 152.419 62.9841 152.31 63.1726C151.404 63.8323 150.639 64.6759 150.063 65.6938C149.78 65.8682 149.478 66.0426 149.176 66.184C148.713 65.8399 148.237 65.5006 147.689 65.2838C143.564 63.6533 138.877 65.6891 137.249 69.808C135.974 73.0267 136.985 76.533 139.444 78.7102C139.108 78.9553 138.764 79.2192 138.471 79.5019C136.881 80.2418 134.997 80.3738 133.232 79.681C130.249 78.5076 128.55 75.3878 129.159 72.2727L129.178 72.2633ZM136.328 87.3155C135.998 87.0186 135.602 86.7924 135.149 86.6652C134.592 86.5049 133.827 86.4672 133.076 86.5521C133.539 85.9441 133.893 85.2749 134.054 84.7141C134.068 84.6246 134.049 84.5351 134.058 84.4549C134.728 84.5492 135.38 84.601 136.031 84.5822C135.951 85.5153 136.092 86.4343 136.333 87.3202L136.328 87.3155ZM145.697 95.0631C144.89 94.3374 143.899 93.8049 142.743 93.6022C139.467 93.0273 136.347 95.1951 135.743 98.461C135.446 98.5646 135.191 98.6636 134.87 98.7767L132.095 96.1753C132.491 95.9397 132.897 95.6993 133.294 95.4496C134.582 95.5485 135.786 94.8087 136.305 93.6258C137.32 93.0037 138.33 92.3816 139.349 91.769C139.864 92.146 140.421 92.4853 141.048 92.7304C143.446 93.6776 146.023 93.3053 148.109 92.047C148.308 92.7681 148.628 93.4326 149.011 94.0688C147.982 94.3657 146.863 94.705 145.697 95.0631ZM153.235 98.1923C153.211 97.9284 153.126 97.6787 153.042 97.4336C153.797 97.7069 154.58 97.8436 155.335 97.8813C154.604 97.8577 153.886 97.9331 153.235 98.1923ZM168.065 81.9572C167.097 84.4172 164.294 85.6331 161.825 84.6623L161.551 84.5303C161.268 84.3984 160.961 84.3795 160.664 84.4125C160.825 84.1203 160.995 83.8376 161.127 83.5124C161.641 82.2211 161.717 80.8827 161.467 79.6292C161.278 78.6631 160.867 77.7488 160.291 76.9477C159.56 75.9109 158.517 75.0673 157.252 74.5631C153.712 73.1634 149.681 74.8977 148.289 78.4416C147.769 79.7376 147.689 81.0854 147.963 82.3625C148.227 83.6349 148.85 84.8037 149.747 85.7415C150.417 86.4343 151.229 87.0139 152.173 87.3862C154.66 88.3712 157.365 87.7774 159.253 86.1279C159.276 86.4295 159.361 86.7123 159.564 86.9668C160.612 88.324 160.867 90.0818 160.239 91.6606C160.206 91.7313 160.154 91.7973 160.136 91.8632C159.088 94.1772 156.393 95.3035 153.995 94.3515C153.339 94.0923 152.768 93.6917 152.301 93.1969C151.243 92.1036 150.738 90.5531 151.04 88.9697C151.196 88.2062 150.785 87.4428 150.049 87.1553C149.327 86.8725 148.496 87.1459 148.086 87.8104C146.925 89.6624 144.668 90.4589 142.611 89.8321C142.497 89.7991 142.365 89.7708 142.252 89.7237C140.878 89.1865 139.906 88.0837 139.481 86.7877C139.175 85.8735 139.132 84.8697 139.42 83.8988C139.467 83.7622 139.481 83.6302 139.529 83.503C140.147 81.9431 141.563 80.7979 143.234 80.5293C143.975 80.4209 144.499 79.7988 144.569 79.0589C144.626 78.3191 144.145 77.6122 143.432 77.3765L142.965 77.221C142.445 77.0184 142.006 76.7168 141.605 76.3774C140.1 75.0815 139.481 72.9419 140.246 70.9909C140.444 70.5149 140.713 70.1002 141.015 69.7326C142.309 68.1633 144.494 67.5082 146.486 68.2952C147.623 68.7288 148.548 69.5912 149.067 70.7081C149.091 70.7458 149.119 70.7741 149.138 70.8118C149.487 71.4386 150.224 71.7732 150.932 71.5847C151.682 71.3962 152.197 70.694 152.149 69.9211C152.145 69.8033 152.159 69.6855 152.164 69.5676C152.173 68.988 152.263 68.4225 152.475 67.8994C153.155 66.1887 154.703 65.1048 156.421 64.9163C157.171 64.822 157.969 64.8974 158.72 65.1943C161.183 66.1651 162.396 68.9644 161.419 71.4244C161.193 71.9852 160.872 72.5084 160.428 72.9749C159.923 73.5121 159.848 74.3227 160.239 74.9542C160.641 75.581 161.405 75.8496 162.118 75.6234C163.005 75.3265 163.959 75.3265 164.846 75.5763C165.011 75.6234 165.186 75.6564 165.346 75.7177C166.134 76.0287 166.772 76.533 167.277 77.1362C168.358 78.451 168.726 80.2654 168.065 81.9478V81.9572ZM156.506 80.7791C155.774 82.6594 153.627 83.5831 151.744 82.8385C150.988 82.5369 150.384 82.0091 149.988 81.3587C149.403 80.4115 149.247 79.205 149.676 78.0834C150.417 76.2125 152.555 75.2794 154.434 76.0287C155.524 76.4528 156.26 77.3435 156.591 78.3709C156.832 79.1391 156.832 79.9826 156.506 80.7791ZM91.0602 137.307C91.4756 137.581 91.8768 137.807 92.2685 138.014C75.697 150.239 59.4277 164.231 51.3661 176.865L36.3711 162.275C43.0261 159.787 58.5781 138.976 73.12 117.755C73.4834 118.768 74.0168 119.871 74.7719 121.035C75.31 121.869 75.5932 122.392 75.7348 122.698C75.5083 123.019 75.159 123.447 74.8616 123.824C74.8616 123.824 70.6657 129.263 72.3743 130.309C74.0734 131.355 77.6039 132.01 80.719 128.905C83.8294 125.804 84.1409 128.876 84.1409 128.876C84.1409 128.876 82.7155 130.743 82.673 130.86C82.673 130.86 78.9679 137.411 81.5402 139.31C84.1173 141.205 88.2802 136.049 88.2802 136.049C88.6578 135.752 89.0873 136.586 89.4035 136.355C89.7198 136.492 90.2342 136.775 91.0649 137.312L91.0602 137.307ZM140.86 62.6165C142.795 57.7342 140.388 52.2156 135.507 50.2882C134.393 49.8546 133.265 49.6661 132.133 49.6519C130.325 49.6378 128.574 50.1374 127.045 51.0563C125.345 52.1025 123.944 53.6483 123.16 55.637C122.65 56.9189 122.471 58.2431 122.523 59.5391C122.627 61.5656 123.372 63.4789 124.633 65.0435C125.633 66.2876 126.926 67.3291 128.512 67.9606C133.407 69.8928 138.939 67.4847 140.86 62.6165ZM136.73 60.9859C135.696 63.5779 132.756 64.8456 130.16 63.8229C128.541 63.182 127.446 61.8106 127.092 60.2319C126.875 59.2752 126.931 58.2526 127.314 57.2676C127.809 56.0329 128.739 55.1186 129.862 54.5861C131.075 54.0064 132.52 53.8933 133.884 54.4306C136.484 55.4485 137.744 58.3939 136.73 60.9859ZM103.837 113.414L96.1388 121.091C96.1766 121.115 96.219 121.134 96.2568 121.152C96.1718 121.204 96.1058 121.256 96.035 121.336C95.6432 121.836 95.3034 122.269 101.788 128.74C104.167 131.12 106.419 133.245 106.447 133.264L107.901 134.64L108.108 134.744C108.108 134.744 112.597 135.385 113.234 129.616C120.281 126.845 117.506 123.65 117.506 123.65C113.239 116.393 103.832 113.41 103.832 113.41L103.837 113.414ZM102.614 127.934C99.8675 125.196 98.4657 123.65 97.7577 122.774C97.8285 122.807 97.8852 122.858 97.9559 122.887C99.3766 123.754 100.675 124.781 101.822 125.917C103.459 127.548 104.535 129.211 105.234 130.507C104.474 129.762 103.544 128.867 102.614 127.934ZM94.77 119.479L91.636 116.346L99.1312 108.876L102.265 112.01L94.77 119.479ZM76.2681 103.499C76.2681 103.499 80.5349 107.467 83.1497 110.092C89.1298 116.058 89.5451 115.738 90.0218 115.346C90.1398 115.252 90.2059 115.139 90.2531 115.031L97.8663 107.434C97.8663 107.434 94.8644 98.0415 87.6053 93.7766C87.6053 93.7766 84.3958 91.0008 81.6158 98.0462C75.8481 98.6872 76.2162 103.438 76.2162 103.438L76.2729 103.494L76.2681 103.499ZM85.3445 109.498C86.5197 110.667 87.5722 112.01 88.4548 113.452C88.4784 113.504 88.5209 113.541 88.5398 113.579C87.7186 112.901 86.3309 111.633 83.9615 109.272C82.8288 108.141 81.7243 107.005 80.8228 106.072C82.1161 106.788 83.735 107.886 85.3445 109.498ZM75.5318 118.231C72.1052 112.952 74.5124 110.408 74.5124 110.408C78.7697 115.804 91.0225 116.011 91.0225 116.011C84.594 125.036 74.8144 128.127 74.8144 128.127C77.821 124.31 78.9774 123.509 75.5366 118.231H75.5318ZM100.712 136.568C100.712 136.568 98.1683 138.971 92.8821 135.54C87.5911 132.109 86.784 133.264 82.9704 136.271C82.9704 136.271 86.0666 126.506 95.1099 120.097C95.1099 120.092 95.3223 132.321 100.712 136.568Z" fill="black"/>
</svg>
