<svg width="205" height="205" viewBox="0 0 205 205" fill="none" xmlns="http://www.w3.org/2000/svg">
<path d="M205 102.5C205 159.109 159.109 205 102.5 205C45.8908 205 0 159.109 0 102.5C0 45.8908 45.8908 0 102.5 0C159.109 0 205 45.8908 205 102.5Z" fill="#F9F9F9"/>
<path d="M87.249 74.895C80.8384 74.895 75.6418 80.1045 75.6418 86.5312C75.6418 92.9573 80.8384 98.1673 87.249 98.1673C93.6591 98.1673 98.8561 92.9573 98.8561 86.5312C98.8561 80.1045 93.6591 74.895 87.249 74.895ZM80.4984 86.5312C80.4984 82.7935 83.5206 79.7637 87.249 79.7637C90.9769 79.7637 93.9996 82.7935 93.9996 86.5312C93.9996 90.2684 90.9769 93.2986 87.249 93.2986C83.5206 93.2986 80.4984 90.2684 80.4984 86.5312Z" fill="black"/>
<path d="M130.034 42.4574L126.598 34.1896C126.138 33.0653 125.331 32.1161 124.323 31.5288C123.323 30.9459 121.934 30.6326 120.554 31.2156C116.373 32.9332 113.886 37.0321 112.496 41.6309C110.645 40.4539 108.678 39.4393 106.614 38.6065C103.786 37.4574 100.658 38.8813 99.5306 41.5773L99.5253 41.5899C98.6997 43.595 98.0586 45.6528 97.6021 47.7399C93.4196 45.5293 88.835 44.4415 84.7177 46.1603C83.3535 46.7234 82.5643 47.8895 82.2442 49.041C81.9261 50.1866 82.0213 51.4347 82.4628 52.562L87.0634 63.6855C86.451 64.4449 85.9187 65.292 85.486 66.2209C85.2825 66.6572 85.0994 67.0682 84.9352 67.446C84.7473 67.2223 84.5443 66.9833 84.3257 66.7298C79.6542 61.3167 71.3418 61.0726 66.3664 66.2429L66.3556 66.2542C61.5086 71.3563 61.9306 79.5018 67.3262 84.0598C67.6804 84.3588 68.0079 84.629 68.3069 84.8724C67.9055 85.0633 67.4597 85.2794 66.9712 85.5267C66.3731 85.8296 65.812 86.1743 65.2893 86.5555L52.6775 81.3129L52.6353 81.2959C51.5108 80.8528 50.266 80.7579 49.1233 81.0763C47.9744 81.3971 46.8108 82.1888 46.2493 83.5574C44.5244 87.7108 45.6345 92.339 47.8679 96.5529C45.657 97.0996 43.5085 97.8002 42.3166 98.1892L41.8737 98.3333C40.6922 98.7141 39.3556 99.4911 38.6179 100.92C37.825 102.455 38.0162 104.16 38.8044 105.704C38.9409 105.971 39.0931 106.275 39.2596 106.607C39.9173 107.92 40.7988 109.679 41.8091 111.38C37.1904 112.769 33.0653 115.267 31.3423 119.481C30.7607 120.865 31.0732 122.258 31.6547 123.26C32.2405 124.27 33.1874 125.08 34.3089 125.541L43.6385 129.437C43.5397 129.529 43.4421 129.622 43.3456 129.717L36.9349 136.095C36.595 136.436 36.6436 136.923 36.9835 137.263C43.0938 142.767 52.5355 142.767 58.5289 137.078C58.1464 138.285 57.9328 139.557 57.9153 140.866V149.922C57.9153 150.36 58.3038 150.75 58.7409 150.701C67.0941 150.263 73.8448 143.349 73.8448 134.829L73.7424 134.523L128.984 144.537C132.51 145.176 135.399 147.711 136.499 151.131L141.545 166.816C142.128 169.689 145.722 170.419 148.053 168.082L168.062 148.023C170.393 145.686 169.664 142.083 166.799 141.499L150.761 136.667C147.354 135.641 144.779 132.829 144.05 129.339L132.878 75.8975C133.089 75.5547 133.291 75.2042 133.483 74.8458C141.915 74.7694 148.735 68.0314 149.17 59.7051C149.218 59.2669 148.83 58.8774 148.393 58.8774H139.36C138.084 58.8946 136.844 59.0992 135.666 59.4661L135.657 59.4117C141.255 53.3995 141.231 43.9915 135.766 37.8934C135.426 37.5526 134.94 37.5526 134.6 37.8447L130.034 42.4574ZM86.9774 50.7662C86.9444 50.6785 86.9264 50.5974 86.9187 50.5279C89.4392 49.66 92.9209 50.4441 97.0319 53.0282C101.217 55.6591 105.479 59.8158 108.92 64.3447C110.008 65.7768 111.918 66.8297 113.907 66.0091C115.892 65.1896 116.511 63.097 116.269 61.3223C115.496 55.6671 115.57 49.68 116.673 44.8309C117.75 40.0988 119.645 37.0757 122.026 35.8888C122.054 35.9317 122.081 35.9813 122.104 36.0367L128.176 50.6471L128.179 50.6536C129.767 54.5434 131.243 60.4263 131.2 63.8126L131.201 63.856C131.243 72.218 126.779 77.6409 119.88 80.5329C118.261 81.1965 116.636 81.6503 115.03 81.8884C113.058 80.0334 110.54 78.8065 107.924 78.5577C107.369 78.5051 106.857 78.4686 106.39 78.4433L106.549 78.2077C110.491 72.3711 108.677 64.3466 102.597 60.8111C98.8706 58.65 94.5279 58.696 91.0006 60.4926L86.9774 50.7662ZM80.321 107.221C80.5401 109.056 81.1535 110.737 82.0626 112.195C81.9528 114.371 81.4395 116.593 80.5367 118.806C77.6519 125.722 72.2425 130.198 63.9013 130.155H63.858C60.4802 130.198 54.6119 128.718 50.7318 127.126L50.7253 127.123L36.1691 121.043L36.1513 121.036C36.0961 121.013 36.0466 120.986 36.0038 120.957C37.1877 118.571 40.2034 116.671 44.9236 115.591C49.759 114.486 55.7289 114.411 61.3684 115.185C63.2506 115.451 65.1893 114.639 65.9461 112.76C66.6958 110.899 65.89 108.969 64.3925 107.821C59.8749 104.372 55.7248 100.097 53.1005 95.9009C50.5228 91.7796 49.7407 88.2892 50.6065 85.7624C50.6758 85.7702 50.7566 85.7887 50.8442 85.8213L61.8809 90.4091C59.7926 94.1584 59.7462 98.9322 62.2228 102.873C65.9839 108.833 74.0134 110.374 79.6761 106.101L80.1651 105.731C80.2069 106.188 80.2574 106.688 80.321 107.221ZM102.011 50.5488C102.397 48.1376 103.064 45.7578 104.011 43.4562C104.147 43.1377 104.511 43.0053 104.79 43.1187L104.798 43.1218C107.152 44.0713 109.36 45.2936 111.385 46.7507C110.806 50.7569 110.765 55.1202 111.155 59.3455C108.422 56.0531 105.28 52.9749 102.011 50.5488ZM46.8595 110.287C45.6512 108.499 44.5476 106.304 43.6452 104.51C43.4642 104.15 43.2914 103.806 43.1274 103.485C43.0459 103.325 43.0058 103.21 42.9861 103.136C43.0607 103.088 43.1823 103.026 43.3606 102.968L43.8004 102.826C45.4132 102.302 48.2463 101.382 50.6457 100.918C53.0628 104.186 56.1261 107.326 59.402 110.06C55.1946 109.669 50.85 109.709 46.8595 110.287ZM100.164 65.0248C103.796 67.1373 104.899 71.9667 102.528 75.4778C102.368 75.7139 102.212 75.9427 102.062 76.1633C101.468 77.0377 100.96 77.7846 100.648 78.3396C100.468 78.6595 100.172 79.2174 100.078 79.8664C100.025 80.2355 100.018 80.7462 100.226 81.2968C100.444 81.8743 100.822 82.2974 101.222 82.5797C101.885 83.0476 102.626 83.1372 102.922 83.1708C103.313 83.2156 103.761 83.2287 104.165 83.239L104.442 83.2453C105.251 83.2643 106.23 83.2872 107.466 83.4045C111.315 83.7706 114.789 87.833 114.047 91.9403L114.045 91.9534C113.32 96.0952 109.167 98.7783 105.078 97.7535C104.194 97.5319 103.546 97.3445 102.992 97.1848C102.73 97.1094 102.49 97.0402 102.255 96.9759C101.954 96.8937 101.535 96.7836 101.134 96.7437L101.123 96.7427C100.891 96.7194 99.5656 96.585 98.6603 97.7238C98.2126 98.2876 98.1072 98.8889 98.0887 99.2633C98.0712 99.6269 98.1261 99.9356 98.1659 100.12C98.2436 100.48 98.3806 100.864 98.4806 101.141L98.603 101.477C98.8133 102.051 99.0683 102.748 99.3451 103.681C100.542 107.718 98.0382 111.962 93.916 112.879C89.7199 113.79 85.6516 110.899 85.1431 106.642C85.0173 105.587 84.9527 104.747 84.8969 104.017C84.8745 103.728 84.8537 103.456 84.8308 103.194C84.7939 102.774 84.7454 102.301 84.6531 101.878C84.5812 101.549 84.3865 100.729 83.7051 100.09C82.7819 99.2248 81.6678 99.2603 80.9786 99.4478C80.4036 99.6045 79.9019 99.9108 79.5707 100.126C79.0481 100.468 78.3585 100.992 77.5572 101.602L77.5523 101.606C77.2974 101.8 77.0312 102.003 76.7554 102.211C73.3854 104.754 68.5921 103.857 66.3306 100.276C64.0264 96.6069 65.3551 91.7981 69.1596 89.873C70.0391 89.428 70.685 89.1296 71.2568 88.8652C71.5904 88.7114 71.8996 88.5682 72.2172 88.4139C72.5719 88.241 73.0071 88.0195 73.3791 87.7498C73.6987 87.5185 74.4519 86.9187 74.6583 85.8398C74.8793 84.683 74.3247 83.8208 74.0396 83.4488C73.7394 83.0578 73.3582 82.7195 73.0629 82.4682C72.791 82.2365 72.4593 81.9707 72.1096 81.6902L71.9317 81.5476C71.5029 81.2034 71.0133 80.8075 70.4558 80.3367C67.2088 77.5937 66.9492 72.6953 69.867 69.6176C72.857 66.5169 77.8471 66.6641 80.6527 69.9153C81.1214 70.4582 81.5143 70.9324 81.8562 71.3464L81.9465 71.4559C82.2433 71.8159 82.5249 72.1572 82.7697 72.4349C83.0154 72.7129 83.3637 73.0916 83.7731 73.3828C84.1791 73.6715 85.1246 74.2085 86.316 73.8395C87.3329 73.5245 87.8458 72.7309 88.023 72.4436C88.2489 72.0769 88.4378 71.6505 88.5874 71.2988C88.6826 71.0754 88.7792 70.8421 88.8817 70.5932C89.1434 69.9593 89.4475 69.2227 89.886 68.282C91.713 64.3624 96.4482 62.8709 100.164 65.0248Z" fill="black"/>
</svg>
