<svg width="205" height="205" viewBox="0 0 205 205" fill="none" xmlns="http://www.w3.org/2000/svg">
<path d="M205 102.5C205 159.109 159.109 205 102.5 205C45.8908 205 0 159.109 0 102.5C0 45.8908 45.8908 0 102.5 0C159.109 0 205 45.8908 205 102.5Z" fill="#F9F9F9"/>
<path d="M142.358 98.2532C142.926 95.4685 143.246 92.5903 143.246 89.628C143.246 69.2283 149.091 56.4794 149.151 56.3542L150.944 52.5174L146.551 53.3804C145.995 53.4897 140.886 54.5189 133.668 56.6525C129.826 51.8594 125.575 49.5323 125.381 49.4275L123.572 48.4826L122.354 50.0469C122.328 50.0788 120.25 52.67 114.424 56.3064C111.013 50.3884 111.102 45.6796 111.102 45.6363L111.224 42.6216L108.124 43.4868C107.794 43.5779 100.544 45.6477 93.5856 50.9053C91.7134 49.4412 90.2568 47.9133 89.4188 46.308L88.2213 44.0083L85.9897 45.4997C85.7633 45.65 80.9406 48.9311 76.942 53.8996C71.1109 50.96 67.1076 49.4321 66.7527 49.3L61.5963 47.3668L63.7578 52.1394C63.8325 52.3079 71.349 69.2853 65.9964 89.0997C65.0837 92.4697 64.8316 95.8783 65.2074 99.2301C60.1653 94.273 57.0374 90.3384 57.0374 90.3384C57.0374 90.3384 55.3287 130.646 100.318 130.646L99.3746 147.058C97.4815 144.178 94.5169 141.311 89.8203 138.971C78.9051 133.533 52.9033 137.113 52.9033 137.113C52.9033 137.113 62.3222 158.348 73.2351 163.785C83.9986 169.15 93.4688 165.832 98.4479 163.157L97.5212 179.242H109.095L107.363 149.103L121.924 145.519L106.933 141.591L106.303 130.691C142.888 130.691 149.592 91.7228 149.592 91.7228C149.592 91.7228 146.808 94.4848 142.358 98.2532ZM138.619 89.628C138.619 94.4484 137.73 99.0434 136.145 103.251C126.371 110.713 112.949 119.047 101.714 119.047C94.9791 119.047 88.163 116.328 81.9514 112.566C81.8113 112.293 81.6619 112.022 81.5359 111.742C77.6096 102.946 81.3305 92.5926 92.0122 82.5898C107.036 68.5202 133.28 61.0197 143.383 58.5424C141.52 63.973 138.619 74.807 138.619 89.628ZM124.62 54.1569C125.752 54.9561 127.377 56.2699 129.016 58.0938C125.267 59.312 121.156 60.7875 116.936 62.5339L115.549 61.9601C115.148 61.7939 114.744 61.6277 114.34 61.4592C119.744 58.3898 122.96 55.7485 124.62 54.1569ZM106.739 48.5782C107.134 50.9804 108.112 54.5667 110.484 58.5879C110.061 58.8156 109.62 59.0456 109.169 59.2778C104.996 57.4767 100.915 55.5754 97.5002 53.5421C100.957 51.1034 104.433 49.489 106.739 48.5782ZM86.7484 50.459C91.487 56.3997 101.739 60.9355 111.406 64.959C108.184 66.4572 104.968 68.1171 101.856 69.9479C94.608 64.0185 87.1756 59.3894 81.0153 56.0377C83.0158 53.6491 85.2147 51.6886 86.7484 50.459ZM69.7733 55.3272C75.9289 58.1302 87.1452 63.8387 97.8877 72.4252C94.6056 74.5907 91.501 76.9565 88.7325 79.55C76.09 91.3881 74.54 101.541 75.7398 108.349C74.2155 107.204 72.7496 106.029 71.356 104.852C69.4862 100.102 69.1547 95.0768 70.4853 90.1539C74.5003 75.2897 71.8392 62.1241 69.7733 55.3272Z" fill="black"/>
</svg>
