<svg width="205" height="205" viewBox="0 0 205 205" fill="none" xmlns="http://www.w3.org/2000/svg">
<path d="M205 102.5C205 159.109 159.109 205 102.5 205C45.8908 205 0 159.109 0 102.5C0 45.8908 45.8908 0 102.5 0C159.109 0 205 45.8908 205 102.5Z" fill="#F9F9F9"/>
<path fill-rule="evenodd" clip-rule="evenodd" d="M102.5 203.951C158.603 203.951 204 158.483 204 102.5C204 46.5172 158.603 1.04924 102.5 1.04924C46.3973 1.04924 1 46.5172 1 102.5C1 158.483 46.3973 203.951 102.5 203.951ZM102.5 205C159.109 205 205 159.109 205 102.5C205 45.8908 159.109 0 102.5 0C45.8908 0 0 45.8908 0 102.5C0 159.109 45.8908 205 102.5 205Z" fill="black"/>
<path d="M108.998 67.4859C109.999 66.7561 111.354 67.0478 112.024 68.1374C112.694 69.2271 112.426 70.7024 111.426 71.4321C108.491 73.5774 105.909 78.91 104.09 85.1156C102.033 92.1371 101.03 100.127 101.611 105.971C101.738 107.276 100.87 108.447 99.6707 108.586C98.4718 108.725 97.3965 107.779 97.2691 106.473C96.6277 100.019 97.7073 91.2903 99.9365 83.6822C102.028 76.5439 105.19 70.2698 108.998 67.4858L108.998 67.4859Z" fill="black"/>
<path fill-rule="evenodd" clip-rule="evenodd" d="M110.256 64.8047C109.277 66.1922 108.545 67.7832 108.108 69.5077L107.792 70.7544L108.942 71.0797C110.535 71.5304 112.165 71.6346 113.756 71.4055C114.313 69.2647 115.026 67.2596 116.169 65.4875C114.188 65.6798 112.237 65.3492 110.256 64.8047Z" fill="black"/>
<path fill-rule="evenodd" clip-rule="evenodd" d="M135.013 49.241C136.606 49.0115 138.237 49.1173 139.828 49.5669L140.977 49.8922L140.661 51.139C140.223 52.8666 139.49 54.4564 138.513 55.8419C136.532 55.2975 134.581 54.9668 132.6 55.159C133.743 53.3871 134.456 51.3818 135.013 49.241Z" fill="black"/>
<path fill-rule="evenodd" clip-rule="evenodd" d="M120.269 44.9381C118.995 43.8722 117.533 43.0756 115.95 42.5992L114.805 42.2549L114.506 43.5068C114.092 45.2415 113.997 47.0173 114.207 48.7492C116.173 49.3566 118.014 50.1325 119.642 51.3774C119.465 49.2204 119.769 47.0958 120.269 44.9381Z" fill="black"/>
<path fill-rule="evenodd" clip-rule="evenodd" d="M134.562 71.8969C134.773 73.6315 134.676 75.4076 134.263 77.1392L133.964 78.3911L132.819 78.0469C131.233 77.5697 129.772 76.7721 128.5 75.7077C129 73.5502 129.304 71.4256 129.127 69.2686C130.755 70.5136 132.596 71.2895 134.562 71.8969Z" fill="black"/>
<path fill-rule="evenodd" clip-rule="evenodd" d="M115.02 72.389C114.943 72.7027 114.873 73.018 114.811 73.3345C113.906 77.916 114.572 82.6416 116.694 86.7148L117.506 88.2754L118.927 87.3665C122.904 84.8218 125.759 80.7278 126.954 75.8711C128.812 68.3219 127.042 66.2044 124.385 60.3228C119.382 63.9698 116.878 64.8394 115.02 72.389Z" fill="black"/>
<path fill-rule="evenodd" clip-rule="evenodd" d="M121.815 44.7749C121.892 44.4612 121.976 44.15 122.067 43.8419C123.387 39.3816 126.134 35.6517 129.842 33.2795L131.262 32.3706L132.075 33.9312C134.351 38.2999 134.944 43.4001 133.749 48.257C131.891 55.8061 129.387 56.6765 124.384 60.3233C121.727 54.4411 119.957 52.3243 121.815 44.7749Z" fill="black"/>
<path fill-rule="evenodd" clip-rule="evenodd" d="M113.304 50.1261C113.016 50.042 112.726 49.9659 112.436 49.8979C108.228 48.9126 103.888 49.6381 100.148 51.9484L98.7148 52.8334L99.5495 54.3803C101.886 58.7105 105.646 61.8199 110.106 63.1213C117.039 65.1441 118.983 63.2174 124.385 60.3236C121.036 54.8761 120.237 52.149 113.304 50.1261Z" fill="black"/>
<path fill-rule="evenodd" clip-rule="evenodd" d="M138.663 57.5247C138.951 57.6087 139.237 57.7004 139.52 57.7997C143.616 59.2372 147.041 62.2284 149.22 66.2656L150.055 67.8124L148.622 68.6976C144.61 71.1754 139.926 71.8211 135.466 70.5197C128.533 68.497 127.734 65.7698 124.385 60.3228C129.786 57.4287 131.73 55.5018 138.663 57.5247Z" fill="black"/>
<path d="M88.6422 74.8557C87.8209 74.2568 86.7089 74.4962 86.1589 75.3905C85.6088 76.2848 85.8287 77.4957 86.65 78.0946C89.0586 79.8553 91.1782 84.2321 92.6704 89.3253C94.359 95.0881 95.1821 101.646 94.7054 106.442C94.6009 107.514 95.3138 108.475 96.2978 108.589C97.2818 108.702 98.1645 107.926 98.269 106.855C98.7953 101.557 97.9093 94.3932 96.0797 88.1489C94.3631 82.2901 91.7679 77.1406 88.6422 74.8557Z" fill="black"/>
<path fill-rule="evenodd" clip-rule="evenodd" d="M87.6094 72.6553C88.4127 73.7941 89.0132 75.0999 89.3722 76.5153L89.6318 77.5386L88.6881 77.8055C87.3806 78.1753 86.0423 78.2608 84.7368 78.0728C84.279 76.3158 83.6942 74.6701 82.7559 73.2156C84.3817 73.3735 85.983 73.1021 87.6094 72.6553Z" fill="black"/>
<path fill-rule="evenodd" clip-rule="evenodd" d="M67.2901 59.8815C65.9827 59.6933 64.6441 59.78 63.3389 60.149L62.3953 60.416L62.6548 61.4393C63.0144 62.8572 63.6156 64.1622 64.4178 65.2992C66.044 64.8524 67.6454 64.581 69.2712 64.7387C68.3328 63.2845 67.748 61.6386 67.2901 59.8815Z" fill="black"/>
<path fill-rule="evenodd" clip-rule="evenodd" d="M79.3914 56.3497C80.4372 55.4748 81.6364 54.821 82.9361 54.43L83.8759 54.1475L84.121 55.175C84.4606 56.5987 84.5393 58.0561 84.3666 59.4776C82.753 59.9762 81.2417 60.613 79.9061 61.6346C80.051 59.8644 79.8017 58.1205 79.3914 56.3497Z" fill="black"/>
<path fill-rule="evenodd" clip-rule="evenodd" d="M67.6603 78.476C67.4874 79.8998 67.567 81.3575 67.9059 82.7787L68.1511 83.8063L69.0908 83.5236C70.393 83.1321 71.5913 82.4774 72.6355 81.6039C72.2252 79.833 71.976 78.0893 72.1209 76.3188C70.7853 77.3407 69.2739 77.9776 67.6603 78.476Z" fill="black"/>
<path fill-rule="evenodd" clip-rule="evenodd" d="M83.6995 78.8809C83.7628 79.1383 83.8202 79.3972 83.8715 79.6569C84.614 83.4172 84.0672 87.2957 82.326 90.6387L81.6588 91.9196L80.4929 91.1735C77.2292 89.0851 74.8856 85.725 73.9047 81.7387C72.38 75.5428 73.8323 73.8049 76.0134 68.9775C80.1192 71.9708 82.1748 72.6846 83.6995 78.8809Z" fill="black"/>
<path fill-rule="evenodd" clip-rule="evenodd" d="M78.1223 56.2155C78.0589 55.958 77.9898 55.7027 77.9149 55.4497C76.8315 51.7889 74.5769 48.7278 71.534 46.7806L70.3681 46.0347L69.701 47.3155C67.8334 50.9011 67.3466 55.0871 68.3275 59.0734C69.8522 65.2693 71.9078 65.9837 76.0133 68.9768C78.1946 64.149 79.647 62.4117 78.1223 56.2155Z" fill="black"/>
<path fill-rule="evenodd" clip-rule="evenodd" d="M85.1083 60.6084C85.3447 60.5394 85.5824 60.477 85.821 60.4211C89.2742 59.6125 92.836 60.2079 95.906 62.1039L97.0823 62.8305L96.3972 64.1C94.4793 67.654 91.3936 70.206 87.7328 71.2741C82.0428 72.9343 80.4469 71.353 76.0137 68.978C78.7626 64.5069 79.418 62.2687 85.1083 60.6084Z" fill="black"/>
<path fill-rule="evenodd" clip-rule="evenodd" d="M64.2944 66.6809C64.0579 66.7499 63.8233 66.8253 63.5911 66.9067C60.2293 68.0866 57.418 70.5416 55.63 73.8551L54.9448 75.1247L56.1211 75.8511C59.414 77.8847 63.2581 78.4148 66.9188 77.3466C72.6088 75.6865 73.2649 73.4481 76.0136 68.9775C71.58 66.6021 69.9846 65.0207 64.2944 66.6809Z" fill="black"/>
<path d="M120.736 178.657C123.178 174.262 124.584 169.104 124.584 163.582C124.584 150.566 120.632 143.174 116.804 136.013C112.752 128.434 108.822 121.083 108.822 108.474C108.822 104.138 108.017 103.218 106.762 103.218C105.764 103.218 104.641 103.378 103.43 103.55C101.675 103.8 99.7681 104.071 97.8094 104.071C95.8506 104.071 93.944 103.8 92.1891 103.55C90.9777 103.378 89.8548 103.218 88.8562 103.218C87.6018 103.218 86.7969 104.138 86.7969 108.474C86.7969 121.083 82.8669 128.434 78.8149 136.013C74.9863 143.174 71.0347 150.566 71.0347 163.582C71.0347 169.104 72.4405 174.262 74.8826 178.657C77.2721 182.957 80.6407 186.526 84.6453 188.992H110.973C114.978 186.526 118.347 182.957 120.736 178.657Z" fill="black"/>
</svg>
