<svg width="205" height="205" viewBox="0 0 205 205" fill="none" xmlns="http://www.w3.org/2000/svg">
<path d="M205 102.5C205 159.109 159.109 205 102.5 205C45.8908 205 0 159.109 0 102.5C0 45.8908 45.8908 0 102.5 0C159.109 0 205 45.8908 205 102.5Z" fill="#F9F9F9"/>
<path d="M76.6726 46H64.0036C58.7776 46 54.0267 48.1279 50.5807 51.563C47.1347 54.998 45 59.7337 45 64.9431V77.5718C45 82.7812 47.1347 87.5169 50.5807 90.952C54.0267 94.387 58.7776 96.5149 64.0036 96.5149H76.6726C81.8986 96.5149 86.6495 94.387 90.0955 90.952C93.5414 87.5169 95.6762 82.7812 95.6762 77.5718V64.9431C95.6762 59.7337 93.5414 54.998 90.0955 51.563C86.6495 48.1279 81.8986 46 76.6726 46ZM140.018 46H127.349C122.123 46 117.372 48.1279 113.926 51.563C110.48 54.998 108.345 59.7337 108.345 64.9431V77.5718C108.345 82.7812 110.48 87.5169 113.926 90.952C117.372 94.387 122.123 96.5149 127.349 96.5149H140.018C145.244 96.5149 149.995 94.387 153.441 90.952C156.887 87.5169 159.021 82.7812 159.021 77.5718V64.9431C159.021 59.7337 156.887 54.998 153.441 51.563C149.995 48.1279 145.244 46 140.018 46ZM76.6726 109.144H64.0036C58.7776 109.144 54.0267 111.272 50.5807 114.707C47.1347 118.142 45 122.877 45 128.087V140.715C45 145.925 47.1347 150.661 50.5807 154.096C54.0267 157.531 58.7776 159.659 64.0036 159.659H76.6726C81.8986 159.659 86.6495 157.531 90.0955 154.096C93.5414 150.661 95.6762 145.925 95.6762 140.715V128.087C95.6762 122.877 93.5414 118.142 90.0955 114.707C86.6495 111.272 81.8986 109.144 76.6726 109.144ZM140.018 109.144H127.349C122.123 109.144 117.372 111.272 113.926 114.707C110.48 118.142 108.345 122.877 108.345 128.087V140.715C108.345 145.925 110.48 150.661 113.926 154.096C117.372 157.531 122.123 159.659 127.349 159.659H140.018C145.244 159.659 149.995 157.531 153.441 154.096C156.887 150.661 159.021 145.925 159.021 140.715V128.087C159.021 122.877 156.887 118.142 153.441 114.707C149.995 111.272 145.244 109.144 140.018 109.144Z" fill="black"/>
<path fill-rule="evenodd" clip-rule="evenodd" d="M76.6726 47H64.0036C59.0543 47 54.5539 49.0143 51.2867 52.2712C48.0195 55.528 46 60.0125 46 64.9431V77.5718C46 82.5024 48.0195 86.9869 51.2867 90.2437C54.5539 93.5006 59.0543 95.5149 64.0036 95.5149H76.6726C81.6219 95.5149 86.1222 93.5006 89.3895 90.2437C92.6567 86.9869 94.6762 82.5024 94.6762 77.5718V64.9431C94.6762 60.0125 92.6567 55.528 89.3895 52.2712C86.1222 49.0143 81.6219 47 76.6726 47ZM140.018 47H127.349C122.399 47 117.899 49.0143 114.632 52.2712C111.365 55.528 109.345 60.0125 109.345 64.9431V77.5718C109.345 82.5024 111.365 86.9869 114.632 90.2437C117.899 93.5006 122.399 95.5149 127.349 95.5149H140.018C144.967 95.5149 149.467 93.5006 152.735 90.2437C156.002 86.9869 158.021 82.5024 158.021 77.5718V64.9431C158.021 60.0125 156.002 55.528 152.735 52.2712C149.467 49.0143 144.967 47 140.018 47ZM76.6726 110.144H64.0036C59.0543 110.144 54.5539 112.158 51.2867 115.415C48.0195 118.672 46 123.156 46 128.087V140.715C46 145.646 48.0195 150.131 51.2867 153.387C54.5539 156.644 59.0543 158.659 64.0036 158.659H76.6726C81.6219 158.659 86.1222 156.644 89.3895 153.387C92.6567 150.131 94.6762 145.646 94.6762 140.715V128.087C94.6762 123.156 92.6567 118.672 89.3895 115.415C86.1222 112.158 81.6219 110.144 76.6726 110.144ZM140.018 110.144H127.349C122.399 110.144 117.899 112.158 114.632 115.415C111.365 118.672 109.345 123.156 109.345 128.087V140.715C109.345 145.646 111.365 150.131 114.632 153.387C117.899 156.644 122.399 158.659 127.349 158.659H140.018C144.967 158.659 149.467 156.644 152.735 153.387C156.002 150.131 158.021 145.646 158.021 140.715V128.087C158.021 123.156 156.002 118.672 152.735 115.415C149.467 112.158 144.967 110.144 140.018 110.144ZM64.0036 46H76.6726C81.8986 46 86.6495 48.1279 90.0955 51.563C93.5414 54.998 95.6762 59.7337 95.6762 64.9431V77.5718C95.6762 82.7812 93.5414 87.5169 90.0955 90.952C86.6495 94.387 81.8986 96.5149 76.6726 96.5149H64.0036C58.7776 96.5149 54.0267 94.387 50.5807 90.952C47.1347 87.5169 45 82.7812 45 77.5718V64.9431C45 59.7337 47.1347 54.998 50.5807 51.563C54.0267 48.1279 58.7776 46 64.0036 46ZM127.349 46H140.018C145.244 46 149.995 48.1279 153.441 51.563C156.887 54.998 159.021 59.7337 159.021 64.9431V77.5718C159.021 82.7812 156.887 87.5169 153.441 90.952C149.995 94.387 145.244 96.5149 140.018 96.5149H127.349C122.123 96.5149 117.372 94.387 113.926 90.952C110.48 87.5169 108.345 82.7812 108.345 77.5718V64.9431C108.345 59.7337 110.48 54.998 113.926 51.563C117.372 48.1279 122.123 46 127.349 46ZM64.0036 109.144H76.6726C81.8986 109.144 86.6495 111.272 90.0955 114.707C93.5414 118.142 95.6762 122.877 95.6762 128.087V140.715C95.6762 145.925 93.5414 150.661 90.0955 154.096C86.6495 157.531 81.8986 159.659 76.6726 159.659H64.0036C58.7776 159.659 54.0267 157.531 50.5807 154.096C47.1347 150.661 45 145.925 45 140.715V128.087C45 122.877 47.1347 118.142 50.5807 114.707C54.0267 111.272 58.7776 109.144 64.0036 109.144ZM127.349 109.144H140.018C145.244 109.144 149.995 111.272 153.441 114.707C156.887 118.142 159.021 122.877 159.021 128.087V140.715C159.021 145.925 156.887 150.661 153.441 154.096C149.995 157.531 145.244 159.659 140.018 159.659H127.349C122.123 159.659 117.372 157.531 113.926 154.096C110.48 150.661 108.345 145.925 108.345 140.715V128.087C108.345 122.877 110.48 118.142 113.926 114.707C117.372 111.272 122.123 109.144 127.349 109.144Z" fill="black"/>
</svg>
